{
  "accessors": [
    {
      "bufferView": 2,
      "componentType": 5126,
      "count": 10794,
      "max": [
        0.3859789967536926,
        0.39096999168395996,
        0.4876149892807007
      ],
      "min": [
        -0.39131298661231995,
        -0.3861829936504364,
        -0.005950000137090683
      ],
      "type": "VEC3"
    },
    {
      "bufferView": 2,
      "byteOffset": 129528,
      "componentType": 5126,
      "count": 10794,
      "max": [
        0.9999531507492065,
        0.9998398423194885,
        0.9999951124191284
      ],
      "min": [
        -0.9995267987251282,
        -0.9999469518661499,
        -0.9999998807907104
      ],
      "type": "VEC3"
    },
    {
      "bufferView": 3,
      "componentType": 5126,
      "count": 10794,
      "max": [
        0.9984152317047119,
        0.9999648928642273,
        0.9999810457229614,
        1.0
      ],
      "min": [
        -0.9998477101325989,
        -0.9992865324020386,
        -0.9999998211860657,
        1.0
      ],
      "type": "VEC4"
    },
    {
      "bufferView": 1,
      "componentType": 5126,
      "count": 10794,
      "max": [
        0.9879000186920166,
        0.9696999788284302
      ],
      "min": [
        0.004399999976158142,
        0.0
      ],
      "type": "VEC2"
    },
    {
      "bufferView": 0,
      "componentType": 5125,
      "count": 59988,
      "type": "SCALAR"
    }
  ],
  "asset": {
    "extras": {
      "author": "Guay0 (https://sketchfab.com/Guay0)",
      "license": "CC-BY-4.0 (http://creativecommons.org/licenses/by/4.0/)",
      "source": "https://sketchfab.com/3d-models/leather-wooden-chest-3d-scan-quixel-megascans-36731e079ff044febf94c0fe9ec1d063",
      "title": "Leather Wooden Chest - 3D scan Quixel Megascans"
    },
    "generator": "Sketchfab-14.35.0",
    "version": "2.0"
  },
  "bufferViews": [
    {
      "buffer": 0,
      "byteLength": 239952,
      "name": "floatBufferViews",
      "target": 34963
    },
    {
      "buffer": 0,
      "byteLength": 86352,
      "byteOffset": 239952,
      "byteStride": 8,
      "name": "floatBufferViews",
      "target": 34962
    },
    {
      "buffer": 0,
      "byteLength": 259056,
      "byteOffset": 326304,
      "byteStride": 12,
      "name": "floatBufferViews",
      "target": 34962
    },
    {
      "buffer": 0,
      "byteLength": 172704,
      "byteOffset": 585360,
      "byteStride": 16,
      "name": "floatBufferViews",
      "target": 34962
    }
  ],
  "buffers": [
    {
      "byteLength": 758064,
      "uri": "scene.bin"
    }
  ],
  "images": [
    {
      "uri": "textures/Leather_Wooden_vigiaeoga_baseColor.jpeg"
    },
    {
      "uri": "textures/Leather_Wooden_vigiaeoga_metallicRoughness.png"
    },
    {
      "uri": "textures/Leather_Wooden_vigiaeoga_normal.png"
    }
  ],
  "materials": [
    {
      "doubleSided": true,
      "name": "Leather_Wooden_vigiaeoga",
      "normalTexture": {
        "index": 2
      },
      "pbrMetallicRoughness": {
        "baseColorTexture": {
          "index": 0
        },
        "metallicFactor": 0.0,
        "metallicRoughnessTexture": {
          "index": 1
        },
        "roughnessFactor": 0.6
      }
    }
  ],
  "meshes": [
    {
      "name": "Object_0",
      "primitives": [
        {
          "attributes": {
            "NORMAL": 1,
            "POSITION": 0,
            "TANGENT": 2,
            "TEXCOORD_0": 3
          },
          "indices": 4,
          "material": 0,
          "mode": 4
        }
      ]
    }
  ],
  "nodes": [
    {
      "children": [
        1
      ],
      "matrix": [
        1.0,
        0.0,
        0.0,
        0.0,
        0.0,
        2.220446049250313e-16,
        -1.0,
        0.0,
        0.0,
        1.0,
        2.220446049250313e-16,
        0.0,
        0.0,
        0.0,
        0.0,
        1.0
      ],
      "name": "Sketchfab_model"
    },
    {
      "children": [
        2
      ],
      "name": "Leather Wooden Chest.obj.cleaner.materialmerger.gles"
    },
    {
      "mesh": 0,
      "name": "Object_2"
    }
  ],
  "samplers": [
    {
      "magFilter": 9729,
      "minFilter": 9987,
      "wrapS": 10497,
      "wrapT": 10497
    }
  ],
  "scene": 0,
  "scenes": [
    {
      "name": "Sketchfab_Scene",
      "nodes": [
        0
      ]
    }
  ],
  "textures": [
    {
      "sampler": 0,
      "source": 0
    },
    {
      "sampler": 0,
      "source": 1
    },
    {
      "sampler": 0,
      "source": 2
    }
  ]
}
